<?xml version="1.0" standalone="no"?>
<!DOCTYPE svg PUBLIC "-//W3C//DTD SVG 20010904//EN"
 "http://www.w3.org/TR/2001/REC-SVG-20010904/DTD/svg10.dtd">
<svg version="1.0" xmlns="http://www.w3.org/2000/svg"
 width="256.000000pt" height="256.000000pt" viewBox="0 0 256.000000 256.000000"
 preserveAspectRatio="xMidYMid meet">
<metadata>
Created by potrace 1.14, written by Peter Selinger 2001-2017
</metadata>
<g transform="translate(0.000000,256.000000) scale(0.100000,-0.100000)"
fill="#000000" stroke="none">
<path d="M1166 2168 c-54 -38 -75 -71 -63 -102 8 -21 -23 -60 -36 -47 -6 6
-19 11 -29 11 -10 0 -18 5 -18 10 0 17 -27 11 -57 -13 -15 -13 -45 -34 -67
-47 -37 -22 -40 -23 -70 -6 -38 20 -136 20 -178 -1 -35 -18 -60 -64 -54 -99 3
-15 8 -63 11 -108 l6 -81 -50 -33 c-49 -33 -50 -33 -81 -17 -32 17 -80 14 -80
-5 0 -6 -5 -10 -11 -10 -6 0 -17 -6 -24 -12 -28 -25 -40 -34 -73 -54 -32 -18
-34 -21 -29 -67 l4 -47 -74 -57 c-99 -76 -114 -106 -73 -153 11 -13 20 -20 20
-16 0 4 6 2 13 -4 20 -18 342 -227 383 -249 21 -12 34 -21 29 -21 -6 0 1 -6
15 -14 36 -19 297 -184 352 -223 26 -18 52 -33 57 -33 5 0 14 -7 21 -15 7 -9
28 -23 46 -31 19 -9 34 -20 34 -25 0 -5 5 -9 11 -9 5 0 37 -18 69 -40 32 -22
64 -40 69 -40 6 0 11 -3 11 -8 0 -4 20 -18 45 -32 25 -14 45 -28 45 -32 0 -5
7 -8 15 -8 8 0 15 -4 15 -10 0 -5 5 -10 11 -10 6 0 30 -13 54 -30 24 -16 46
-30 50 -30 3 0 16 -9 27 -20 28 -26 92 -43 133 -36 33 6 59 27 85 66 8 12 30
42 48 66 18 24 30 44 27 44 -4 0 0 7 8 15 8 8 25 31 38 52 12 21 31 48 42 60
11 13 16 23 11 23 -5 0 -4 4 1 8 15 10 335 492 335 503 0 5 5 9 10 9 6 0 14 8
18 18 4 9 46 77 95 150 100 152 106 177 55 215 -18 14 -42 27 -53 29 -31 5
-29 29 9 136 42 117 43 130 14 141 -13 5 -52 23 -87 40 -36 17 -71 31 -79 31
-7 0 -35 -23 -62 -51 -35 -37 -52 -65 -61 -101 -15 -55 -35 -80 -45 -54 -3 9
-14 16 -24 16 -28 0 -42 26 -37 69 6 52 -20 95 -70 116 -61 25 -140 10 -166
-32 -6 -10 -13 -10 -28 -3 -10 6 -19 7 -19 3 -1 -4 -9 3 -20 16 -11 12 -17 27
-14 32 8 14 25 128 28 193 1 31 0 32 -94 74 -74 33 -83 31 -152 -30 -35 -31
-46 -60 -48 -125 0 -16 -27 -17 -32 -1 -2 6 -1 31 2 54 7 43 -2 65 -30 76 -8
3 -40 17 -71 31 l-56 25 -57 -40z m34 -334 c0 -26 -3 -32 -15 -28 -16 6 -17
11 -17 44 0 29 0 30 17 24 9 -4 15 -19 15 -40z"/>
</g>
</svg>
